<svg xmlns="http://www.w3.org/2000/svg" width="24" height="24" viewBox="0 0 24 24">
    <defs>
        <linearGradient id="grad1" x1="0%" y1="0%" x2="100%" y2="100%">
            <stop offset="0%" style="stop-color:#FF5722;stop-opacity:1" />
            <stop offset="100%" style="stop-color:#FFC107;stop-opacity:1" />
        </linearGradient>
    </defs>
    <path fill="url(#grad1)" d="M15.5,14h-0.79l-0.28,-0.27c0.98,-1.14 1.57,-2.61 1.57,-4.23 0,-3.59 -2.91,-6.5 -6.5,-6.5 -3.59,0 -6.5,2.91 -6.5,6.5 0,3.59 2.91,6.5 6.5,6.5 1.62,0 3.09,-0.59 4.23,-1.57l0.27,0.28v0.79l5,4.99L20.49,19l-4.99,-5zM9.5,14c-2.48,0 -4.5,-2.02 -4.5,-4.5 0,-2.48 2.02,-4.5 4.5,-4.5 2.48,0 4.5,2.02 4.5,4.5 0,2.48 -2.02,4.5 -4.5,4.5z"/>
</svg>
